<mxfile host="www.draw.io" modified="2020-01-30T09:08:07.397Z" agent="Mozilla/5.0 (Windows NT 6.1; Win64; x64; rv:68.0) Gecko/20100101 Firefox/68.0" etag="RVwClQ81jSb4ns96VzRW" version="12.6.2" type="github">
  <diagram id="xBTwDfz0BuFVLC_paz6A" name="Page-1">
    <mxGraphModel dx="997" dy="676" grid="1" gridSize="10" guides="1" tooltips="1" connect="1" arrows="1" fold="1" page="1" pageScale="1" pageWidth="827" pageHeight="1169" math="0" shadow="0">
      <root>
        <mxCell id="0"/>
        <mxCell id="1" parent="0"/>
        <mxCell id="nJis0r1jyVxpIfwmtltS-1" value="" style="whiteSpace=wrap;html=1;aspect=fixed;" vertex="1" parent="1">
          <mxGeometry x="210" y="110" width="80" height="80" as="geometry"/>
        </mxCell>
        <mxCell id="nJis0r1jyVxpIfwmtltS-2" value="" style="whiteSpace=wrap;html=1;aspect=fixed;" vertex="1" parent="1">
          <mxGeometry x="410" y="120" width="80" height="80" as="geometry"/>
        </mxCell>
      </root>
    </mxGraphModel>
  </diagram>
</mxfile>
